<svg width="55" height="92" viewBox="0 0 55 92" fill="none" xmlns="http://www.w3.org/2000/svg">
<path d="M52.8407 51.1809C53.7531 52.4061 54.2656 54.0675 54.2656 55.7999C54.2656 57.5323 53.7531 59.1938 52.8407 60.419L30.9407 89.819C30.0281 91.0438 28.7905 91.7319 27.5 91.7319C26.2095 91.7319 24.9719 91.0438 24.0593 89.819L2.15927 60.419C1.27277 59.1868 0.782237 57.5365 0.793326 55.8234C0.804414 54.1104 1.31624 52.4718 2.21855 51.2605C3.12087 50.0491 4.3415 49.362 5.61752 49.3471C6.89354 49.3322 8.12287 49.9908 9.04074 51.1809L22.6333 68.8666L22.6333 6.79993C22.6333 5.06719 23.1461 3.40541 24.0588 2.18017C24.9714 0.954932 26.2093 0.2666 27.5 0.2666C28.7907 0.2666 30.0286 0.954932 30.9413 2.18017C31.8539 3.40541 32.3667 5.06719 32.3667 6.79993L32.3667 68.8666L45.9593 51.1809C46.8719 49.9561 48.1095 49.268 49.4 49.268C50.6905 49.268 51.9281 49.9561 52.8407 51.1809Z" fill="white"/>
</svg>
