<svg width="113" height="113" viewBox="0 0 113 113" fill="none" xmlns="http://www.w3.org/2000/svg">
<path d="M62.4739 17.274C63.8866 15.8617 65.8024 15.0683 67.7999 15.0683C69.7975 15.0683 71.7133 15.8617 73.126 17.274L107.026 51.174C108.438 52.5867 109.232 54.5024 109.232 56.5C109.232 58.4976 108.438 60.4134 107.026 61.8261L73.126 95.7261C71.7052 97.0983 69.8023 97.8577 67.827 97.8405C65.8518 97.8233 63.9624 97.0311 62.5656 95.6343C61.1689 94.2376 60.3766 92.3481 60.3595 90.3729C60.3423 88.3977 61.1016 86.4948 62.4739 85.074L82.8666 64.0334H11.2999C9.30197 64.0334 7.38584 63.2397 5.97306 61.8269C4.56029 60.4141 3.7666 58.498 3.7666 56.5C3.7666 54.5021 4.56029 52.5859 5.97306 51.1731C7.38584 49.7604 9.30197 48.9667 11.2999 48.9667H82.8666L62.4739 27.9261C61.0616 26.5134 60.2682 24.5976 60.2682 22.6C60.2682 20.6025 61.0616 18.6867 62.4739 17.274Z" fill="white"/>
</svg>
