<svg width="91" height="101" viewBox="0 0 91 101" fill="none" xmlns="http://www.w3.org/2000/svg">
<path d="M45.5126 0.92041C20.4579 0.92041 0.137939 23.2404 0.137939 50.7612C0.137939 78.282 20.4579 100.602 45.5126 100.602C70.5674 100.602 90.8874 78.282 90.8874 50.7612C90.8874 23.2404 70.5674 0.92041 45.5126 0.92041ZM49.1624 91.7173C48.9651 91.7173 48.7678 91.7173 48.4719 91.8257V68.3138C53.6012 68.2055 58.2373 68.0971 62.4788 67.7721C58.7305 80.449 51.727 88.9002 49.1624 91.7173ZM41.8629 91.7173C39.1996 88.7919 32.2948 80.3406 28.5465 67.7721C32.6894 68.0971 37.4241 68.3138 42.5534 68.3138V91.8257C42.3561 91.8257 42.1589 91.7173 41.8629 91.7173ZM8.02919 50.7612C8.02919 48.0525 8.32512 45.3437 8.71968 42.7433C10.8898 42.3099 15.0327 41.6598 20.8525 41.0097C20.3593 44.1519 20.0634 47.4024 20.0634 50.8696C20.0634 54.3367 20.3593 57.5872 20.7538 60.621C15.0327 59.9709 10.7911 59.3208 8.62104 58.8874C8.32512 56.1787 8.02919 53.4699 8.02919 50.7612ZM26.0804 50.7612C26.0804 47.0773 26.475 43.6101 27.0668 40.3596C31.6043 40.0346 36.7336 39.7095 42.5534 39.7095V61.8129C36.8323 61.7045 31.6043 61.4878 26.9682 61.0544C26.475 57.9123 26.0804 54.4451 26.0804 50.7612ZM49.0637 9.80507C51.727 12.7305 58.5332 21.3985 62.3802 33.7503C58.2373 33.4253 53.6012 33.2086 48.4719 33.2086V9.69672C48.6691 9.69672 48.8664 9.80507 49.0637 9.80507ZM42.5534 9.69672V33.2086C37.4241 33.3169 32.788 33.4253 28.6451 33.7503C32.3934 21.3985 39.2983 12.7305 41.8629 9.80507C42.1589 9.80507 42.3561 9.69672 42.5534 9.69672ZM48.4719 61.8129V39.7095C54.193 39.8179 59.421 40.0346 63.9585 40.3596C64.5503 43.6101 64.9449 47.0773 64.9449 50.7612C64.9449 54.4451 64.6489 57.9123 64.0571 61.1628C59.5196 61.4878 54.2917 61.7045 48.4719 61.8129ZM70.0742 41.0097C75.894 41.6598 80.0369 42.3099 82.207 42.7433C82.7002 45.3437 82.9961 48.0525 82.9961 50.7612C82.9961 53.4699 82.7002 56.1787 82.3056 58.7791C80.1355 59.2125 75.9926 59.8626 70.1728 60.5127C70.666 57.3705 70.8633 54.12 70.8633 50.6529C70.8633 47.4024 70.5674 44.0435 70.0742 41.0097ZM80.4314 35.809C77.6695 35.3756 73.7239 34.8338 68.6932 34.2921C66.3258 24.974 62.1829 17.4979 58.7305 12.1888C68.6932 16.306 76.5845 24.974 80.4314 35.809ZM32.2948 12.1888C28.7437 17.3895 24.6995 24.8657 22.3321 34.1837C17.4001 34.6171 13.4544 35.2672 10.5939 35.7006C14.4408 24.974 22.4307 16.306 32.2948 12.1888ZM10.5939 65.7134C13.3558 66.1468 17.3014 66.6886 22.2334 67.2303C24.6008 76.5484 28.5465 84.0245 32.0975 89.2253C22.2334 84.9997 14.4408 76.44 10.5939 65.7134ZM58.9278 89.2253C62.4788 84.0245 66.4245 76.6567 68.7918 67.3387C73.7239 66.9053 77.6695 66.2552 80.4314 65.8218C76.5845 76.44 68.7918 84.9997 58.9278 89.2253Z" fill="white"/>
</svg>
