<svg width="129" height="129" viewBox="0 0 129 129" fill="none" xmlns="http://www.w3.org/2000/svg">
<path d="M41.925 10.75H87.075C104.275 10.75 118.25 24.725 118.25 41.925V87.075C118.25 95.3431 114.965 103.273 109.119 109.119C103.273 114.965 95.3431 118.25 87.075 118.25H41.925C24.725 118.25 10.75 104.275 10.75 87.075V41.925C10.75 33.6569 14.0345 25.7274 19.8809 19.8809C25.7274 14.0345 33.6569 10.75 41.925 10.75ZM40.85 21.5C35.7181 21.5 30.7963 23.5387 27.1675 27.1675C23.5387 30.7963 21.5 35.7181 21.5 40.85V88.15C21.5 98.8462 30.1537 107.5 40.85 107.5H88.15C93.2819 107.5 98.2037 105.461 101.833 101.833C105.461 98.2037 107.5 93.2819 107.5 88.15V40.85C107.5 30.1537 98.8462 21.5 88.15 21.5H40.85ZM92.7188 29.5625C94.5007 29.5625 96.2096 30.2704 97.4696 31.5304C98.7296 32.7904 99.4375 34.4993 99.4375 36.2812C99.4375 38.0632 98.7296 39.7721 97.4696 41.0321C96.2096 42.2921 94.5007 43 92.7188 43C90.9368 43 89.2279 42.2921 87.9679 41.0321C86.7079 39.7721 86 38.0632 86 36.2812C86 34.4993 86.7079 32.7904 87.9679 31.5304C89.2279 30.2704 90.9368 29.5625 92.7188 29.5625ZM64.5 37.625C71.6277 37.625 78.4635 40.4565 83.5035 45.4965C88.5435 50.5365 91.375 57.3723 91.375 64.5C91.375 71.6277 88.5435 78.4635 83.5035 83.5035C78.4635 88.5435 71.6277 91.375 64.5 91.375C57.3723 91.375 50.5365 88.5435 45.4965 83.5035C40.4565 78.4635 37.625 71.6277 37.625 64.5C37.625 57.3723 40.4565 50.5365 45.4965 45.4965C50.5365 40.4565 57.3723 37.625 64.5 37.625ZM64.5 48.375C60.2234 48.375 56.1219 50.0739 53.0979 53.0979C50.0739 56.1219 48.375 60.2234 48.375 64.5C48.375 68.7766 50.0739 72.8781 53.0979 75.9021C56.1219 78.9261 60.2234 80.625 64.5 80.625C68.7766 80.625 72.8781 78.9261 75.9021 75.9021C78.9261 72.8781 80.625 68.7766 80.625 64.5C80.625 60.2234 78.9261 56.1219 75.9021 53.0979C72.8781 50.0739 68.7766 48.375 64.5 48.375Z" fill="white"/>
</svg>
