<svg width="92" height="103" viewBox="0 0 92 103" fill="none" xmlns="http://www.w3.org/2000/svg">
<path d="M4.08212 24.4167V20.6787C3.61609 20.6786 3.15502 20.7837 2.7275 20.9875C2.29997 21.1912 1.91509 21.4892 1.59672 21.8631C1.27836 22.2369 1.03328 22.6786 0.876693 23.1607C0.720103 23.6428 0.655336 24.1552 0.686404 24.6659L4.08212 24.4167ZM88.025 24.4167L91.4207 24.6659C91.4517 24.1552 91.387 23.6428 91.2304 23.1607C91.0738 22.6786 90.8287 22.2369 90.5104 21.8631C90.192 21.4892 89.8071 21.1912 89.3796 20.9875C88.952 20.7837 88.491 20.6786 88.025 20.6787V24.4167ZM11.4504 89.6238L7.47783 24.1681L0.686404 24.6653L4.65951 90.1209L11.4504 89.6238ZM87.4476 90.1209L91.4207 24.6653L84.6292 24.1681L80.6567 89.6238L87.4476 90.1209ZM80.6567 89.6238C80.561 91.2009 79.9232 92.6791 78.8724 93.7589C77.8215 94.8388 76.4364 95.4396 74.9974 95.4395V102.916C81.5665 102.916 87.0108 97.321 87.4476 90.1209L80.6567 89.6238ZM4.65951 90.1209C5.09624 97.321 10.5406 102.916 17.1091 102.916V95.4395C15.6703 95.4394 14.2852 94.8386 13.2345 93.7587C12.1838 92.6789 11.5461 91.2008 11.4504 89.6238L4.65951 90.1209ZM33.5755 21.9247C33.5755 14.3551 39.1623 8.21852 46.0535 8.21852V0.742432C35.403 0.742432 26.7694 10.2258 26.7694 21.9247H33.5755ZM46.0535 8.21852C52.9448 8.21852 58.5315 14.3551 58.5315 21.9247H65.3377C65.3377 10.2258 56.7041 0.742432 46.0535 0.742432V8.21852ZM4.08212 28.1548H88.025V20.6787H4.08212V28.1548ZM17.1097 102.916H74.9968V95.4395H17.1097V102.916Z" fill="white"/>
<path d="M56.2628 44.353H41.5161C37.1306 44.353 33.5755 48.258 33.5755 53.0751C33.5755 57.8922 37.1306 61.7972 41.5161 61.7972H43.7848M42.6504 61.7972H50.591C54.9764 61.7972 58.5315 65.7022 58.5315 70.5193C58.5315 75.3364 54.9764 79.2414 50.591 79.2414H35.8443" stroke="white" stroke-width="10.4152" stroke-linecap="round"/>
</svg>
