<svg width="91" height="108" viewBox="0 0 91 108" fill="none" xmlns="http://www.w3.org/2000/svg">
<path fill-rule="evenodd" clip-rule="evenodd" d="M45.6253 8.08229C39.7977 8.08229 34.7231 11.6567 32.1306 16.9236C37.4922 17.5945 41.2657 18.8587 45.6253 21.1029C49.985 18.8587 53.7584 17.5945 59.12 16.9236C56.5281 11.6587 51.4541 8.08229 45.6253 8.08229ZM45.6253 0C35.8311 0 27.4951 6.81404 24.3151 16.3532C19.2172 16.1646 12.7973 16.1646 4.25462 16.1646H3.92964C2.9539 16.1646 2.01812 16.5903 1.32817 17.3482C0.638221 18.1061 0.25061 19.134 0.25061 20.2057V103.723C0.25061 104.795 0.638221 105.822 1.32817 106.58C2.01812 107.338 2.9539 107.764 3.92964 107.764H60.3414C77.2736 107.764 91 92.6864 91 74.0877V20.2057C91 19.134 90.6124 18.1061 89.9225 17.3482C89.2325 16.5903 88.2967 16.1646 87.321 16.1646H86.9954C78.4533 16.1646 72.0334 16.1646 66.9355 16.3532C63.7543 6.81135 55.4177 0 45.6253 0ZM7.60867 24.2475V99.6816H60.3414C73.2101 99.6816 83.642 88.2229 83.642 74.0877V24.2475C72.2971 24.2536 65.4786 24.3136 60.4199 24.8982C55.0902 25.5144 51.8361 26.7012 47.2705 29.2087C46.7596 29.4892 46.1964 29.6353 45.6253 29.6353C45.0542 29.6353 44.491 29.4892 43.9802 29.2087C39.4145 26.7012 36.1604 25.5144 30.8307 24.8982C25.772 24.3136 18.9536 24.2536 7.60867 24.2475ZM17.4194 53.8819C17.4194 47.1864 22.361 41.7585 28.4565 41.7585C34.552 41.7585 39.4936 47.1864 39.4936 53.8819C39.4936 60.5774 34.552 66.0054 28.4565 66.0054C22.361 66.0054 17.4194 60.5774 17.4194 53.8819ZM28.4565 33.6762C18.2969 33.6762 10.0614 42.7223 10.0614 53.8819C10.0614 65.0416 18.2969 74.0877 28.4565 74.0877C29.1469 74.0877 29.8288 74.0459 30.4996 73.9644L43.0236 87.7218C43.3653 88.0972 43.7709 88.3949 44.2173 88.598C44.6637 88.8011 45.1421 88.9057 45.6253 88.9057C46.1085 88.9057 46.587 88.8011 47.0334 88.598C47.4798 88.3949 47.8854 88.0972 48.227 87.7218L60.751 73.9644C61.4218 74.0459 62.1037 74.0877 62.7941 74.0877C72.9538 74.0877 81.1893 65.0416 81.1893 53.8819C81.1893 42.7223 72.9538 33.6762 62.7941 33.6762C54.9676 33.6762 48.2828 39.0449 45.6253 46.6126C42.9678 39.0449 36.283 33.6762 28.4565 33.6762ZM53.0337 71.0117C49.6607 68.6886 47.0619 65.2297 45.6253 61.1513C44.1887 65.2297 41.59 68.6885 38.217 71.0117L45.6253 79.1492L53.0337 71.0117ZM62.7941 41.7585C56.6986 41.7585 51.757 47.1864 51.757 53.8819C51.757 60.5774 56.6986 66.0054 62.7941 66.0054C68.8897 66.0054 73.8312 60.5774 73.8312 53.8819C73.8312 47.1864 68.8897 41.7585 62.7941 41.7585ZM33.3619 53.8819C33.3619 55.311 32.8451 56.6815 31.9251 57.692C31.0052 58.7025 29.7575 59.2701 28.4565 59.2701C27.1555 59.2701 25.9078 58.7025 24.9879 57.692C24.068 56.6815 23.5511 55.311 23.5511 53.8819C23.5511 52.4529 24.068 51.0824 24.9879 50.0719C25.9078 49.0614 27.1555 48.4938 28.4565 48.4938C29.7575 48.4938 31.0052 49.0614 31.9251 50.0719C32.8451 51.0824 33.3619 52.4529 33.3619 53.8819ZM62.7941 59.2701C64.0951 59.2701 65.3428 58.7025 66.2627 57.692C67.1827 56.6815 67.6995 55.311 67.6995 53.8819C67.6995 52.4529 67.1827 51.0824 66.2627 50.0719C65.3428 49.0614 64.0951 48.4938 62.7941 48.4938C61.4931 48.4938 60.2454 49.0614 59.3255 50.0719C58.4056 51.0824 57.8887 52.4529 57.8887 53.8819C57.8887 55.311 58.4056 56.6815 59.3255 57.692C60.2454 58.7025 61.4931 59.2701 62.7941 59.2701Z" fill="white"/>
</svg>
