<svg width="119" height="119" viewBox="0 0 119 119" fill="none" xmlns="http://www.w3.org/2000/svg">
<path d="M94.4562 24.3454C89.9104 19.7536 84.4958 16.1129 78.5283 13.6357C72.5607 11.1584 66.1596 9.89417 59.6983 9.91668C32.6258 9.91668 10.5612 31.9813 10.5612 59.0538C10.5612 67.7308 12.8421 76.16 17.1062 83.5975L10.1646 109.083L36.1958 102.241C43.3854 106.158 51.4675 108.24 59.6983 108.24C86.7708 108.24 108.835 86.1758 108.835 59.1033C108.835 45.9638 103.728 33.6175 94.4562 24.3454ZM59.6983 99.9104C52.36 99.9104 45.1704 97.9271 38.8733 94.2083L37.3858 93.3158L21.9158 97.3817L26.0312 82.3083L25.0396 80.7713C20.9625 74.2608 18.7977 66.7354 18.7921 59.0538C18.7921 36.5429 37.1379 18.1971 59.6487 18.1971C70.557 18.1971 80.8208 22.4613 88.5062 30.1963C92.3117 33.9842 95.3274 38.4899 97.3786 43.452C99.4299 48.4141 100.476 53.734 100.456 59.1033C100.555 81.6142 82.2091 99.9104 59.6983 99.9104ZM82.11 69.3671C80.8704 68.7721 74.8212 65.7971 73.7304 65.3508C72.59 64.9542 71.7966 64.7558 70.9537 65.9458C70.1108 67.1854 67.7804 69.9621 67.0862 70.7554C66.3921 71.5983 65.6483 71.6975 64.4087 71.0529C63.1691 70.4579 59.2025 69.1192 54.5416 64.9542C50.8725 61.6817 48.4429 57.6654 47.6991 56.4258C47.005 55.1863 47.6 54.5417 48.2445 53.8971C48.79 53.3517 49.4841 52.4592 50.0791 51.765C50.6741 51.0708 50.9221 50.5254 51.3187 49.7321C51.7154 48.8892 51.5171 48.195 51.2196 47.6C50.9221 47.005 48.4429 40.9558 47.4512 38.4767C46.4595 36.0967 45.4183 36.3942 44.6746 36.3446H42.2945C41.4516 36.3446 40.1625 36.6421 39.0221 37.8817C37.9312 39.1213 34.7579 42.0963 34.7579 48.1454C34.7579 54.1946 39.1708 60.0454 39.7658 60.8388C40.3608 61.6817 48.4429 74.0775 60.7396 79.3829C63.665 80.6721 65.9458 81.4158 67.7308 81.9613C70.6562 82.9033 73.3337 82.7546 75.4658 82.4571C77.8458 82.11 82.7545 79.4821 83.7462 76.6063C84.7875 73.7304 84.7875 71.3008 84.4404 70.7554C84.0933 70.21 83.3495 69.9621 82.11 69.3671Z" fill="white"/>
</svg>
